<?xml version="1.0" encoding="iso-8859-1"?>
<!-- Uploaded to: SVG Repo, www.svgrepo.com, Generator: SVG Repo Mixer Tools -->
<svg version="1.1" id="Layer_1" xmlns="http://www.w3.org/2000/svg" xmlns:xlink="http://www.w3.org/1999/xlink" 
	 viewBox="0 0 512 512" xml:space="preserve">
<path style="fill:#2488FF;" d="M478.609,300.522v-33.39h-33.391v-66.784h33.391l0,0l0,0V66.783h-33.391v-33.39h-33.391V0H0v100.174
	h33.39v311.652H0V512h445.217v-33.39h33.391v-0.001l0,0v-33.391l0,0l0,0H512V300.522H478.609z M345.043,378.435H166.957v-44.522
	h178.087V378.435z M345.043,155.826H166.957v-33.391h178.087V155.826z"/>
<polygon style="fill:#005ECE;" points="478.609,300.522 478.609,267.132 445.217,267.132 445.217,200.348 478.609,200.348 
	478.609,200.348 478.609,200.348 478.609,66.783 445.217,66.783 445.217,33.392 411.826,33.392 411.826,0 256,0 256,122.435 
	345.043,122.435 345.043,155.826 256,155.826 256,333.913 345.043,333.913 345.043,378.435 256,378.435 256,512 445.217,512 
	445.217,478.61 478.609,478.61 478.609,478.609 478.609,478.609 478.609,445.217 478.609,445.217 478.609,445.217 512,445.217 
	512,300.522 "/>
<rect x="33.391" y="100.174" width="33.391" height="311.652"/>
<polygon points="33.391,411.826 0,411.826 0,512 445.217,512 445.217,478.609 33.391,478.609 "/>
<polygon points="411.826,33.391 411.826,0 0,0 0,100.174 33.391,100.174 33.391,33.391 "/>
<rect x="411.826" y="33.391" width="33.391" height="33.391"/>
<rect x="445.217" y="66.783" width="33.391" height="133.565"/>
<rect x="478.609" y="300.522" width="33.391" height="144.696"/>
<rect x="445.217" y="445.217" width="33.391" height="33.391"/>
<polygon points="378.435,189.217 378.435,122.435 345.043,122.435 345.043,155.826 166.957,155.826 166.957,122.435 
	345.043,122.435 345.043,89.043 133.565,89.043 133.565,189.217 "/>
<polygon points="345.043,378.435 166.957,378.435 166.957,333.913 345.043,333.913 345.043,300.522 133.565,300.522 
	133.565,411.826 378.435,411.826 378.435,333.913 345.043,333.913 "/>
<polygon points="411.826,233.739 378.435,233.739 378.435,267.13 445.217,267.13 445.217,200.348 411.826,200.348 "/>
<rect x="445.217" y="267.13" width="33.391" height="33.391"/>
</svg>